<mxfile host="app.diagrams.net" agent="Mozilla/5.0 (Macintosh; Intel Mac OS X 10_15_7) AppleWebKit/537.36 (KHTML, like Gecko) Chrome/134.0.0.0 Safari/537.36" version="26.1.1">
  <diagram name="Sivu-1" id="e-fOtTailPTRln513IDr">
    <mxGraphModel dx="1789" dy="2367" grid="1" gridSize="10" guides="1" tooltips="1" connect="1" arrows="1" fold="1" page="1" pageScale="1" pageWidth="827" pageHeight="1169" math="0" shadow="0">
      <root>
        <mxCell id="0" />
        <mxCell id="1" parent="0" />
        <mxCell id="TySJbNBTFxAgqBWfPCnc-95" style="edgeStyle=orthogonalEdgeStyle;rounded=0;orthogonalLoop=1;jettySize=auto;html=1;exitX=0;exitY=0.5;exitDx=0;exitDy=0;entryX=1;entryY=0.75;entryDx=0;entryDy=0;" edge="1" parent="1" source="TySJbNBTFxAgqBWfPCnc-93" target="TySJbNBTFxAgqBWfPCnc-79">
          <mxGeometry relative="1" as="geometry">
            <Array as="points">
              <mxPoint x="540" y="225" />
              <mxPoint x="540" y="155" />
            </Array>
          </mxGeometry>
        </mxCell>
        <mxCell id="TySJbNBTFxAgqBWfPCnc-1" value="" style="rounded=0;whiteSpace=wrap;html=1;" vertex="1" parent="1">
          <mxGeometry x="80" y="210" width="160" height="240" as="geometry" />
        </mxCell>
        <mxCell id="TySJbNBTFxAgqBWfPCnc-14" style="edgeStyle=orthogonalEdgeStyle;rounded=0;orthogonalLoop=1;jettySize=auto;html=1;exitX=1;exitY=0.25;exitDx=0;exitDy=0;entryX=0.5;entryY=1;entryDx=0;entryDy=0;" edge="1" parent="1" source="TySJbNBTFxAgqBWfPCnc-2" target="TySJbNBTFxAgqBWfPCnc-11">
          <mxGeometry relative="1" as="geometry">
            <Array as="points">
              <mxPoint x="320" y="385" />
              <mxPoint x="320" y="540" />
              <mxPoint x="750" y="540" />
            </Array>
          </mxGeometry>
        </mxCell>
        <mxCell id="TySJbNBTFxAgqBWfPCnc-2" value="" style="rounded=0;whiteSpace=wrap;html=1;" vertex="1" parent="1">
          <mxGeometry x="240" y="370" width="10" height="60" as="geometry" />
        </mxCell>
        <mxCell id="TySJbNBTFxAgqBWfPCnc-3" value="" style="rounded=0;whiteSpace=wrap;html=1;" vertex="1" parent="1">
          <mxGeometry x="240" y="300" width="10" height="60" as="geometry" />
        </mxCell>
        <mxCell id="TySJbNBTFxAgqBWfPCnc-4" value="" style="rounded=0;whiteSpace=wrap;html=1;" vertex="1" parent="1">
          <mxGeometry x="240" y="230" width="10" height="60" as="geometry" />
        </mxCell>
        <mxCell id="TySJbNBTFxAgqBWfPCnc-5" value="Power" style="text;html=1;align=center;verticalAlign=middle;whiteSpace=wrap;rounded=0;" vertex="1" parent="1">
          <mxGeometry x="180" y="385" width="60" height="30" as="geometry" />
        </mxCell>
        <mxCell id="TySJbNBTFxAgqBWfPCnc-6" value="Encoder" style="text;html=1;align=center;verticalAlign=middle;whiteSpace=wrap;rounded=0;" vertex="1" parent="1">
          <mxGeometry x="180" y="315" width="60" height="30" as="geometry" />
        </mxCell>
        <mxCell id="TySJbNBTFxAgqBWfPCnc-7" value="Control" style="text;html=1;align=center;verticalAlign=middle;whiteSpace=wrap;rounded=0;" vertex="1" parent="1">
          <mxGeometry x="180" y="245" width="60" height="30" as="geometry" />
        </mxCell>
        <mxCell id="TySJbNBTFxAgqBWfPCnc-15" style="edgeStyle=orthogonalEdgeStyle;rounded=0;orthogonalLoop=1;jettySize=auto;html=1;exitX=0.5;exitY=1;exitDx=0;exitDy=0;entryX=1;entryY=0.5;entryDx=0;entryDy=0;" edge="1" parent="1" source="TySJbNBTFxAgqBWfPCnc-10" target="TySJbNBTFxAgqBWfPCnc-3">
          <mxGeometry relative="1" as="geometry">
            <Array as="points">
              <mxPoint x="700" y="530" />
              <mxPoint x="330" y="530" />
              <mxPoint x="330" y="330" />
            </Array>
          </mxGeometry>
        </mxCell>
        <mxCell id="TySJbNBTFxAgqBWfPCnc-10" value="" style="rounded=0;whiteSpace=wrap;html=1;" vertex="1" parent="1">
          <mxGeometry x="690" y="480" width="20" height="40" as="geometry" />
        </mxCell>
        <mxCell id="TySJbNBTFxAgqBWfPCnc-11" value="" style="rounded=0;whiteSpace=wrap;html=1;" vertex="1" parent="1">
          <mxGeometry x="710" y="480" width="80" height="40" as="geometry" />
        </mxCell>
        <mxCell id="TySJbNBTFxAgqBWfPCnc-12" value="" style="rounded=0;whiteSpace=wrap;html=1;" vertex="1" parent="1">
          <mxGeometry x="790" y="470" width="10" height="60" as="geometry" />
        </mxCell>
        <mxCell id="TySJbNBTFxAgqBWfPCnc-13" value="" style="rounded=0;whiteSpace=wrap;html=1;" vertex="1" parent="1">
          <mxGeometry x="800" y="490" width="10" height="20" as="geometry" />
        </mxCell>
        <mxCell id="TySJbNBTFxAgqBWfPCnc-34" value="" style="rounded=0;whiteSpace=wrap;html=1;" vertex="1" parent="1">
          <mxGeometry x="80" y="480" width="160" height="240" as="geometry" />
        </mxCell>
        <mxCell id="TySJbNBTFxAgqBWfPCnc-35" style="edgeStyle=orthogonalEdgeStyle;rounded=0;orthogonalLoop=1;jettySize=auto;html=1;exitX=1;exitY=0.25;exitDx=0;exitDy=0;entryX=0.5;entryY=1;entryDx=0;entryDy=0;" edge="1" parent="1" source="TySJbNBTFxAgqBWfPCnc-36" target="TySJbNBTFxAgqBWfPCnc-45">
          <mxGeometry relative="1" as="geometry">
            <Array as="points">
              <mxPoint x="260" y="655" />
              <mxPoint x="260" y="610" />
              <mxPoint x="750" y="610" />
            </Array>
          </mxGeometry>
        </mxCell>
        <mxCell id="TySJbNBTFxAgqBWfPCnc-36" value="" style="rounded=0;whiteSpace=wrap;html=1;" vertex="1" parent="1">
          <mxGeometry x="240" y="640" width="10" height="60" as="geometry" />
        </mxCell>
        <mxCell id="TySJbNBTFxAgqBWfPCnc-37" value="" style="rounded=0;whiteSpace=wrap;html=1;" vertex="1" parent="1">
          <mxGeometry x="240" y="570" width="10" height="60" as="geometry" />
        </mxCell>
        <mxCell id="TySJbNBTFxAgqBWfPCnc-38" value="" style="rounded=0;whiteSpace=wrap;html=1;" vertex="1" parent="1">
          <mxGeometry x="240" y="500" width="10" height="60" as="geometry" />
        </mxCell>
        <mxCell id="TySJbNBTFxAgqBWfPCnc-39" value="Power" style="text;html=1;align=center;verticalAlign=middle;whiteSpace=wrap;rounded=0;" vertex="1" parent="1">
          <mxGeometry x="180" y="655" width="60" height="30" as="geometry" />
        </mxCell>
        <mxCell id="TySJbNBTFxAgqBWfPCnc-40" value="Encoder" style="text;html=1;align=center;verticalAlign=middle;whiteSpace=wrap;rounded=0;" vertex="1" parent="1">
          <mxGeometry x="180" y="585" width="60" height="30" as="geometry" />
        </mxCell>
        <mxCell id="TySJbNBTFxAgqBWfPCnc-41" value="Control" style="text;html=1;align=center;verticalAlign=middle;whiteSpace=wrap;rounded=0;" vertex="1" parent="1">
          <mxGeometry x="180" y="515" width="60" height="30" as="geometry" />
        </mxCell>
        <mxCell id="TySJbNBTFxAgqBWfPCnc-43" style="edgeStyle=orthogonalEdgeStyle;rounded=0;orthogonalLoop=1;jettySize=auto;html=1;exitX=0.5;exitY=1;exitDx=0;exitDy=0;entryX=1;entryY=0.5;entryDx=0;entryDy=0;" edge="1" parent="1" source="TySJbNBTFxAgqBWfPCnc-44" target="TySJbNBTFxAgqBWfPCnc-37">
          <mxGeometry relative="1" as="geometry">
            <Array as="points">
              <mxPoint x="700" y="600" />
            </Array>
          </mxGeometry>
        </mxCell>
        <mxCell id="TySJbNBTFxAgqBWfPCnc-44" value="" style="rounded=0;whiteSpace=wrap;html=1;" vertex="1" parent="1">
          <mxGeometry x="690" y="555" width="20" height="40" as="geometry" />
        </mxCell>
        <mxCell id="TySJbNBTFxAgqBWfPCnc-45" value="" style="rounded=0;whiteSpace=wrap;html=1;" vertex="1" parent="1">
          <mxGeometry x="710" y="555" width="80" height="40" as="geometry" />
        </mxCell>
        <mxCell id="TySJbNBTFxAgqBWfPCnc-46" value="" style="rounded=0;whiteSpace=wrap;html=1;" vertex="1" parent="1">
          <mxGeometry x="790" y="545" width="10" height="60" as="geometry" />
        </mxCell>
        <mxCell id="TySJbNBTFxAgqBWfPCnc-47" value="" style="rounded=0;whiteSpace=wrap;html=1;" vertex="1" parent="1">
          <mxGeometry x="800" y="565" width="10" height="20" as="geometry" />
        </mxCell>
        <mxCell id="TySJbNBTFxAgqBWfPCnc-48" value="Stepper&lt;div&gt;CS-M23445&lt;/div&gt;" style="text;html=1;align=center;verticalAlign=middle;whiteSpace=wrap;rounded=0;fontStyle=1" vertex="1" parent="1">
          <mxGeometry x="710" y="560" width="80" height="30" as="geometry" />
        </mxCell>
        <mxCell id="TySJbNBTFxAgqBWfPCnc-49" value="" style="rounded=0;whiteSpace=wrap;html=1;" vertex="1" parent="1">
          <mxGeometry x="80" y="760" width="160" height="240" as="geometry" />
        </mxCell>
        <mxCell id="TySJbNBTFxAgqBWfPCnc-50" style="edgeStyle=orthogonalEdgeStyle;rounded=0;orthogonalLoop=1;jettySize=auto;html=1;exitX=1;exitY=0.25;exitDx=0;exitDy=0;entryX=0.5;entryY=1;entryDx=0;entryDy=0;" edge="1" parent="1" source="TySJbNBTFxAgqBWfPCnc-51" target="TySJbNBTFxAgqBWfPCnc-60">
          <mxGeometry relative="1" as="geometry">
            <Array as="points">
              <mxPoint x="260" y="935" />
              <mxPoint x="260" y="890" />
              <mxPoint x="710" y="890" />
              <mxPoint x="710" y="690" />
              <mxPoint x="750" y="690" />
            </Array>
          </mxGeometry>
        </mxCell>
        <mxCell id="TySJbNBTFxAgqBWfPCnc-51" value="" style="rounded=0;whiteSpace=wrap;html=1;" vertex="1" parent="1">
          <mxGeometry x="240" y="920" width="10" height="60" as="geometry" />
        </mxCell>
        <mxCell id="TySJbNBTFxAgqBWfPCnc-52" value="" style="rounded=0;whiteSpace=wrap;html=1;" vertex="1" parent="1">
          <mxGeometry x="240" y="850" width="10" height="60" as="geometry" />
        </mxCell>
        <mxCell id="TySJbNBTFxAgqBWfPCnc-53" value="" style="rounded=0;whiteSpace=wrap;html=1;" vertex="1" parent="1">
          <mxGeometry x="240" y="780" width="10" height="60" as="geometry" />
        </mxCell>
        <mxCell id="TySJbNBTFxAgqBWfPCnc-54" value="Power" style="text;html=1;align=center;verticalAlign=middle;whiteSpace=wrap;rounded=0;" vertex="1" parent="1">
          <mxGeometry x="180" y="935" width="60" height="30" as="geometry" />
        </mxCell>
        <mxCell id="TySJbNBTFxAgqBWfPCnc-55" value="Encoder" style="text;html=1;align=center;verticalAlign=middle;whiteSpace=wrap;rounded=0;" vertex="1" parent="1">
          <mxGeometry x="180" y="865" width="60" height="30" as="geometry" />
        </mxCell>
        <mxCell id="TySJbNBTFxAgqBWfPCnc-56" value="Control" style="text;html=1;align=center;verticalAlign=middle;whiteSpace=wrap;rounded=0;" vertex="1" parent="1">
          <mxGeometry x="180" y="795" width="60" height="30" as="geometry" />
        </mxCell>
        <mxCell id="TySJbNBTFxAgqBWfPCnc-57" value="&lt;b&gt;Motor Controller&lt;/b&gt;&lt;div&gt;&lt;b&gt;CS-D808&lt;/b&gt;&lt;/div&gt;" style="text;html=1;align=center;verticalAlign=middle;whiteSpace=wrap;rounded=0;rotation=0;" vertex="1" parent="1">
          <mxGeometry x="70" y="850" width="120" height="55" as="geometry" />
        </mxCell>
        <mxCell id="TySJbNBTFxAgqBWfPCnc-58" style="edgeStyle=orthogonalEdgeStyle;rounded=0;orthogonalLoop=1;jettySize=auto;html=1;exitX=0.5;exitY=1;exitDx=0;exitDy=0;entryX=1;entryY=0.5;entryDx=0;entryDy=0;" edge="1" parent="1" source="TySJbNBTFxAgqBWfPCnc-59" target="TySJbNBTFxAgqBWfPCnc-52">
          <mxGeometry relative="1" as="geometry">
            <Array as="points">
              <mxPoint x="700" y="880" />
            </Array>
          </mxGeometry>
        </mxCell>
        <mxCell id="TySJbNBTFxAgqBWfPCnc-59" value="" style="rounded=0;whiteSpace=wrap;html=1;" vertex="1" parent="1">
          <mxGeometry x="690" y="640" width="20" height="40" as="geometry" />
        </mxCell>
        <mxCell id="TySJbNBTFxAgqBWfPCnc-60" value="" style="rounded=0;whiteSpace=wrap;html=1;" vertex="1" parent="1">
          <mxGeometry x="710" y="640" width="80" height="40" as="geometry" />
        </mxCell>
        <mxCell id="TySJbNBTFxAgqBWfPCnc-61" value="" style="rounded=0;whiteSpace=wrap;html=1;" vertex="1" parent="1">
          <mxGeometry x="790" y="630" width="10" height="60" as="geometry" />
        </mxCell>
        <mxCell id="TySJbNBTFxAgqBWfPCnc-62" value="" style="rounded=0;whiteSpace=wrap;html=1;" vertex="1" parent="1">
          <mxGeometry x="800" y="650" width="10" height="20" as="geometry" />
        </mxCell>
        <mxCell id="TySJbNBTFxAgqBWfPCnc-70" style="edgeStyle=orthogonalEdgeStyle;rounded=0;orthogonalLoop=1;jettySize=auto;html=1;exitX=0.25;exitY=0;exitDx=0;exitDy=0;entryX=1;entryY=0.75;entryDx=0;entryDy=0;" edge="1" parent="1" source="TySJbNBTFxAgqBWfPCnc-64" target="TySJbNBTFxAgqBWfPCnc-51">
          <mxGeometry relative="1" as="geometry" />
        </mxCell>
        <mxCell id="TySJbNBTFxAgqBWfPCnc-71" style="edgeStyle=orthogonalEdgeStyle;rounded=0;orthogonalLoop=1;jettySize=auto;html=1;exitX=0.25;exitY=0;exitDx=0;exitDy=0;entryX=1;entryY=0.75;entryDx=0;entryDy=0;" edge="1" parent="1" source="TySJbNBTFxAgqBWfPCnc-64" target="TySJbNBTFxAgqBWfPCnc-36">
          <mxGeometry relative="1" as="geometry">
            <Array as="points">
              <mxPoint x="510" y="1040" />
              <mxPoint x="510" y="685" />
            </Array>
          </mxGeometry>
        </mxCell>
        <mxCell id="TySJbNBTFxAgqBWfPCnc-64" value="" style="rounded=0;whiteSpace=wrap;html=1;" vertex="1" parent="1">
          <mxGeometry x="470" y="1040" width="90" height="120" as="geometry" />
        </mxCell>
        <mxCell id="TySJbNBTFxAgqBWfPCnc-72" style="edgeStyle=orthogonalEdgeStyle;rounded=0;orthogonalLoop=1;jettySize=auto;html=1;exitX=0.25;exitY=0;exitDx=0;exitDy=0;entryX=1;entryY=0.75;entryDx=0;entryDy=0;" edge="1" parent="1" source="TySJbNBTFxAgqBWfPCnc-65" target="TySJbNBTFxAgqBWfPCnc-2">
          <mxGeometry relative="1" as="geometry">
            <Array as="points">
              <mxPoint x="600" y="980" />
              <mxPoint x="520" y="980" />
              <mxPoint x="520" y="415" />
            </Array>
          </mxGeometry>
        </mxCell>
        <mxCell id="TySJbNBTFxAgqBWfPCnc-65" value="" style="rounded=0;whiteSpace=wrap;html=1;" vertex="1" parent="1">
          <mxGeometry x="580" y="1040" width="90" height="120" as="geometry" />
        </mxCell>
        <mxCell id="TySJbNBTFxAgqBWfPCnc-66" value="Power Supply&lt;div&gt;JT-RD6012&lt;/div&gt;" style="text;html=1;align=center;verticalAlign=middle;whiteSpace=wrap;rounded=0;fontStyle=1" vertex="1" parent="1">
          <mxGeometry x="465" y="1060" width="100" height="30" as="geometry" />
        </mxCell>
        <mxCell id="TySJbNBTFxAgqBWfPCnc-67" value="70V 12.5A" style="text;html=1;align=center;verticalAlign=middle;whiteSpace=wrap;rounded=0;" vertex="1" parent="1">
          <mxGeometry x="485" y="1085" width="60" height="30" as="geometry" />
        </mxCell>
        <mxCell id="TySJbNBTFxAgqBWfPCnc-69" value="70V 12.5A" style="text;html=1;align=center;verticalAlign=middle;whiteSpace=wrap;rounded=0;" vertex="1" parent="1">
          <mxGeometry x="595" y="1085" width="60" height="30" as="geometry" />
        </mxCell>
        <mxCell id="TySJbNBTFxAgqBWfPCnc-76" style="edgeStyle=orthogonalEdgeStyle;rounded=0;orthogonalLoop=1;jettySize=auto;html=1;exitX=0.25;exitY=0;exitDx=0;exitDy=0;entryX=0.75;entryY=0;entryDx=0;entryDy=0;" edge="1" parent="1" source="TySJbNBTFxAgqBWfPCnc-73" target="TySJbNBTFxAgqBWfPCnc-64">
          <mxGeometry relative="1" as="geometry">
            <Array as="points">
              <mxPoint x="740" y="1010" />
              <mxPoint x="538" y="1010" />
            </Array>
          </mxGeometry>
        </mxCell>
        <mxCell id="TySJbNBTFxAgqBWfPCnc-77" style="edgeStyle=orthogonalEdgeStyle;rounded=0;orthogonalLoop=1;jettySize=auto;html=1;exitX=0.75;exitY=0;exitDx=0;exitDy=0;entryX=0.674;entryY=-0.009;entryDx=0;entryDy=0;entryPerimeter=0;" edge="1" parent="1" source="TySJbNBTFxAgqBWfPCnc-73" target="TySJbNBTFxAgqBWfPCnc-65">
          <mxGeometry relative="1" as="geometry">
            <Array as="points">
              <mxPoint x="760" y="1100" />
              <mxPoint x="760" y="1020" />
              <mxPoint x="641" y="1020" />
            </Array>
          </mxGeometry>
        </mxCell>
        <mxCell id="TySJbNBTFxAgqBWfPCnc-73" value="" style="rounded=0;whiteSpace=wrap;html=1;" vertex="1" parent="1">
          <mxGeometry x="720" y="1100" width="80" height="60" as="geometry" />
        </mxCell>
        <mxCell id="TySJbNBTFxAgqBWfPCnc-74" value="Wall Socket" style="text;html=1;align=center;verticalAlign=middle;whiteSpace=wrap;rounded=0;fontStyle=1" vertex="1" parent="1">
          <mxGeometry x="722.5" y="1115" width="75" height="30" as="geometry" />
        </mxCell>
        <mxCell id="TySJbNBTFxAgqBWfPCnc-81" style="edgeStyle=orthogonalEdgeStyle;rounded=0;orthogonalLoop=1;jettySize=auto;html=1;exitX=0.25;exitY=1;exitDx=0;exitDy=0;entryX=1;entryY=0.5;entryDx=0;entryDy=0;" edge="1" parent="1" source="TySJbNBTFxAgqBWfPCnc-79" target="TySJbNBTFxAgqBWfPCnc-4">
          <mxGeometry relative="1" as="geometry" />
        </mxCell>
        <mxCell id="TySJbNBTFxAgqBWfPCnc-82" style="edgeStyle=orthogonalEdgeStyle;rounded=0;orthogonalLoop=1;jettySize=auto;html=1;exitX=0.5;exitY=1;exitDx=0;exitDy=0;entryX=1;entryY=0.5;entryDx=0;entryDy=0;" edge="1" parent="1" source="TySJbNBTFxAgqBWfPCnc-79" target="TySJbNBTFxAgqBWfPCnc-38">
          <mxGeometry relative="1" as="geometry">
            <Array as="points">
              <mxPoint x="460" y="510" />
              <mxPoint x="270" y="510" />
              <mxPoint x="270" y="530" />
            </Array>
          </mxGeometry>
        </mxCell>
        <mxCell id="TySJbNBTFxAgqBWfPCnc-83" style="edgeStyle=orthogonalEdgeStyle;rounded=0;orthogonalLoop=1;jettySize=auto;html=1;exitX=0.75;exitY=1;exitDx=0;exitDy=0;entryX=1;entryY=0.5;entryDx=0;entryDy=0;" edge="1" parent="1" source="TySJbNBTFxAgqBWfPCnc-79" target="TySJbNBTFxAgqBWfPCnc-53">
          <mxGeometry relative="1" as="geometry" />
        </mxCell>
        <mxCell id="TySJbNBTFxAgqBWfPCnc-98" style="edgeStyle=orthogonalEdgeStyle;rounded=0;orthogonalLoop=1;jettySize=auto;html=1;exitX=1;exitY=0.75;exitDx=0;exitDy=0;entryX=0;entryY=0.75;entryDx=0;entryDy=0;" edge="1" parent="1" source="TySJbNBTFxAgqBWfPCnc-79" target="TySJbNBTFxAgqBWfPCnc-93">
          <mxGeometry relative="1" as="geometry">
            <Array as="points">
              <mxPoint x="520" y="160" />
              <mxPoint x="530" y="160" />
              <mxPoint x="530" y="233" />
            </Array>
          </mxGeometry>
        </mxCell>
        <mxCell id="TySJbNBTFxAgqBWfPCnc-107" style="edgeStyle=orthogonalEdgeStyle;rounded=0;orthogonalLoop=1;jettySize=auto;html=1;exitX=0;exitY=0.5;exitDx=0;exitDy=0;entryX=1;entryY=0.5;entryDx=0;entryDy=0;" edge="1" parent="1" source="TySJbNBTFxAgqBWfPCnc-79" target="TySJbNBTFxAgqBWfPCnc-104">
          <mxGeometry relative="1" as="geometry">
            <Array as="points">
              <mxPoint x="400" y="135" />
            </Array>
          </mxGeometry>
        </mxCell>
        <mxCell id="TySJbNBTFxAgqBWfPCnc-120" style="edgeStyle=orthogonalEdgeStyle;rounded=0;orthogonalLoop=1;jettySize=auto;html=1;exitX=1;exitY=0.5;exitDx=0;exitDy=0;entryX=0;entryY=0.75;entryDx=0;entryDy=0;" edge="1" parent="1" source="TySJbNBTFxAgqBWfPCnc-79" target="TySJbNBTFxAgqBWfPCnc-84">
          <mxGeometry relative="1" as="geometry" />
        </mxCell>
        <mxCell id="TySJbNBTFxAgqBWfPCnc-79" value="" style="rounded=0;whiteSpace=wrap;html=1;" vertex="1" parent="1">
          <mxGeometry x="400" y="110" width="120" height="60" as="geometry" />
        </mxCell>
        <mxCell id="TySJbNBTFxAgqBWfPCnc-80" value="&lt;b&gt;Rasberry Pi 5&lt;/b&gt;&lt;div&gt;4GT&lt;/div&gt;" style="text;html=1;align=center;verticalAlign=middle;whiteSpace=wrap;rounded=0;" vertex="1" parent="1">
          <mxGeometry x="415" y="120" width="90" height="30" as="geometry" />
        </mxCell>
        <mxCell id="TySJbNBTFxAgqBWfPCnc-90" style="edgeStyle=orthogonalEdgeStyle;rounded=0;orthogonalLoop=1;jettySize=auto;html=1;exitX=0.5;exitY=1;exitDx=0;exitDy=0;entryX=0.75;entryY=0;entryDx=0;entryDy=0;" edge="1" parent="1" source="TySJbNBTFxAgqBWfPCnc-88" target="TySJbNBTFxAgqBWfPCnc-79">
          <mxGeometry relative="1" as="geometry" />
        </mxCell>
        <mxCell id="TySJbNBTFxAgqBWfPCnc-108" style="edgeStyle=orthogonalEdgeStyle;rounded=0;orthogonalLoop=1;jettySize=auto;html=1;exitX=0.25;exitY=1;exitDx=0;exitDy=0;entryX=1;entryY=0.5;entryDx=0;entryDy=0;" edge="1" parent="1" source="TySJbNBTFxAgqBWfPCnc-88" target="TySJbNBTFxAgqBWfPCnc-101">
          <mxGeometry relative="1" as="geometry">
            <Array as="points">
              <mxPoint x="580" y="70" />
              <mxPoint x="350" y="70" />
              <mxPoint x="350" y="40" />
            </Array>
          </mxGeometry>
        </mxCell>
        <mxCell id="TySJbNBTFxAgqBWfPCnc-123" style="edgeStyle=orthogonalEdgeStyle;rounded=0;orthogonalLoop=1;jettySize=auto;html=1;exitX=0.75;exitY=1;exitDx=0;exitDy=0;entryX=0;entryY=0.5;entryDx=0;entryDy=0;" edge="1" parent="1" source="TySJbNBTFxAgqBWfPCnc-88" target="TySJbNBTFxAgqBWfPCnc-122">
          <mxGeometry relative="1" as="geometry">
            <Array as="points">
              <mxPoint x="620" y="70" />
            </Array>
          </mxGeometry>
        </mxCell>
        <mxCell id="TySJbNBTFxAgqBWfPCnc-88" value="" style="rounded=0;whiteSpace=wrap;html=1;" vertex="1" parent="1">
          <mxGeometry x="560" width="80" height="60" as="geometry" />
        </mxCell>
        <mxCell id="TySJbNBTFxAgqBWfPCnc-89" value="Wall Socket" style="text;html=1;align=center;verticalAlign=middle;whiteSpace=wrap;rounded=0;fontStyle=1" vertex="1" parent="1">
          <mxGeometry x="562.5" y="15" width="75" height="30" as="geometry" />
        </mxCell>
        <mxCell id="TySJbNBTFxAgqBWfPCnc-97" style="edgeStyle=orthogonalEdgeStyle;rounded=0;orthogonalLoop=1;jettySize=auto;html=1;" edge="1" parent="1" source="TySJbNBTFxAgqBWfPCnc-96">
          <mxGeometry relative="1" as="geometry">
            <mxPoint x="440" y="110" as="targetPoint" />
            <Array as="points">
              <mxPoint x="440" y="110" />
            </Array>
          </mxGeometry>
        </mxCell>
        <mxCell id="TySJbNBTFxAgqBWfPCnc-96" value="&lt;div&gt;Limit Sensors&lt;/div&gt;6x D2F-L3-D" style="rounded=0;whiteSpace=wrap;html=1;fontStyle=1" vertex="1" parent="1">
          <mxGeometry x="400" y="-20" width="90" height="60" as="geometry" />
        </mxCell>
        <mxCell id="TySJbNBTFxAgqBWfPCnc-100" style="edgeStyle=orthogonalEdgeStyle;rounded=0;orthogonalLoop=1;jettySize=auto;html=1;exitX=0.5;exitY=0;exitDx=0;exitDy=0;" edge="1" parent="1" source="TySJbNBTFxAgqBWfPCnc-79">
          <mxGeometry relative="1" as="geometry">
            <mxPoint x="450" y="40" as="targetPoint" />
            <Array as="points">
              <mxPoint x="450" y="110" />
            </Array>
          </mxGeometry>
        </mxCell>
        <mxCell id="TySJbNBTFxAgqBWfPCnc-105" style="edgeStyle=orthogonalEdgeStyle;rounded=0;orthogonalLoop=1;jettySize=auto;html=1;entryX=0.5;entryY=0;entryDx=0;entryDy=0;" edge="1" parent="1" source="TySJbNBTFxAgqBWfPCnc-101" target="TySJbNBTFxAgqBWfPCnc-104">
          <mxGeometry relative="1" as="geometry" />
        </mxCell>
        <mxCell id="TySJbNBTFxAgqBWfPCnc-101" value="" style="rounded=0;whiteSpace=wrap;html=1;" vertex="1" parent="1">
          <mxGeometry x="240" y="15" width="90" height="50" as="geometry" />
        </mxCell>
        <mxCell id="TySJbNBTFxAgqBWfPCnc-102" value="Power Supply" style="text;html=1;align=center;verticalAlign=middle;whiteSpace=wrap;rounded=0;fontStyle=1" vertex="1" parent="1">
          <mxGeometry x="240" y="15" width="90" height="30" as="geometry" />
        </mxCell>
        <mxCell id="TySJbNBTFxAgqBWfPCnc-103" value="5V 3A" style="text;html=1;align=center;verticalAlign=middle;whiteSpace=wrap;rounded=0;" vertex="1" parent="1">
          <mxGeometry x="255" y="35" width="60" height="30" as="geometry" />
        </mxCell>
        <mxCell id="TySJbNBTFxAgqBWfPCnc-104" value="&lt;div&gt;&lt;b&gt;LED Strip&lt;/b&gt;&lt;/div&gt;&lt;b&gt;WS2812B&lt;/b&gt;" style="rounded=0;whiteSpace=wrap;html=1;" vertex="1" parent="1">
          <mxGeometry x="245" y="110" width="80" height="50" as="geometry" />
        </mxCell>
        <mxCell id="TySJbNBTFxAgqBWfPCnc-110" value="&lt;b&gt;Motor Controller&lt;/b&gt;&lt;div&gt;&lt;b&gt;CS-D808&lt;/b&gt;&lt;/div&gt;" style="text;html=1;align=center;verticalAlign=middle;whiteSpace=wrap;rounded=0;rotation=0;" vertex="1" parent="1">
          <mxGeometry x="70" y="570" width="120" height="55" as="geometry" />
        </mxCell>
        <mxCell id="TySJbNBTFxAgqBWfPCnc-111" value="&lt;b&gt;Motor Controller&lt;/b&gt;&lt;div&gt;&lt;b&gt;CS-D808&lt;/b&gt;&lt;/div&gt;" style="text;html=1;align=center;verticalAlign=middle;whiteSpace=wrap;rounded=0;rotation=0;" vertex="1" parent="1">
          <mxGeometry x="70" y="302.5" width="120" height="55" as="geometry" />
        </mxCell>
        <mxCell id="TySJbNBTFxAgqBWfPCnc-112" value="Stepper&lt;div&gt;CS-M23445&lt;/div&gt;" style="text;html=1;align=center;verticalAlign=middle;whiteSpace=wrap;rounded=0;fontStyle=1" vertex="1" parent="1">
          <mxGeometry x="710" y="645" width="80" height="30" as="geometry" />
        </mxCell>
        <mxCell id="TySJbNBTFxAgqBWfPCnc-113" value="Stepper&lt;div&gt;CS-M23445&lt;/div&gt;" style="text;html=1;align=center;verticalAlign=middle;whiteSpace=wrap;rounded=0;fontStyle=1" vertex="1" parent="1">
          <mxGeometry x="712.5" y="485" width="80" height="30" as="geometry" />
        </mxCell>
        <mxCell id="TySJbNBTFxAgqBWfPCnc-114" value="Power Supply&lt;div&gt;JT-RD6012&lt;/div&gt;" style="text;html=1;align=center;verticalAlign=middle;whiteSpace=wrap;rounded=0;fontStyle=1" vertex="1" parent="1">
          <mxGeometry x="575" y="1060" width="100" height="30" as="geometry" />
        </mxCell>
        <mxCell id="TySJbNBTFxAgqBWfPCnc-118" value="" style="group" vertex="1" connectable="0" parent="1">
          <mxGeometry x="660" y="210" width="112.5" height="30" as="geometry" />
        </mxCell>
        <mxCell id="TySJbNBTFxAgqBWfPCnc-93" value="" style="rounded=0;whiteSpace=wrap;html=1;" vertex="1" parent="TySJbNBTFxAgqBWfPCnc-118">
          <mxGeometry width="112.5" height="30" as="geometry" />
        </mxCell>
        <mxCell id="TySJbNBTFxAgqBWfPCnc-92" value="Thermal Sensor&lt;div&gt;DS18B20&lt;/div&gt;" style="text;html=1;align=center;verticalAlign=middle;whiteSpace=wrap;rounded=0;fontStyle=1" vertex="1" parent="TySJbNBTFxAgqBWfPCnc-118">
          <mxGeometry x="7.5" width="97.5" height="30" as="geometry" />
        </mxCell>
        <mxCell id="TySJbNBTFxAgqBWfPCnc-119" value="" style="group" vertex="1" connectable="0" parent="1">
          <mxGeometry x="700" y="110" width="80" height="70" as="geometry" />
        </mxCell>
        <mxCell id="TySJbNBTFxAgqBWfPCnc-84" value="" style="rounded=0;whiteSpace=wrap;html=1;" vertex="1" parent="TySJbNBTFxAgqBWfPCnc-119">
          <mxGeometry width="80" height="70" as="geometry" />
        </mxCell>
        <mxCell id="TySJbNBTFxAgqBWfPCnc-85" value="PWM Fan" style="text;html=1;align=center;verticalAlign=middle;whiteSpace=wrap;rounded=0;fontStyle=1" vertex="1" parent="TySJbNBTFxAgqBWfPCnc-119">
          <mxGeometry x="10" y="10" width="60" height="50" as="geometry" />
        </mxCell>
        <mxCell id="TySJbNBTFxAgqBWfPCnc-121" style="edgeStyle=orthogonalEdgeStyle;rounded=0;orthogonalLoop=1;jettySize=auto;html=1;exitX=0;exitY=0.25;exitDx=0;exitDy=0;entryX=1;entryY=0.25;entryDx=0;entryDy=0;" edge="1" parent="1" source="TySJbNBTFxAgqBWfPCnc-84" target="TySJbNBTFxAgqBWfPCnc-79">
          <mxGeometry relative="1" as="geometry">
            <Array as="points">
              <mxPoint x="700" y="125" />
            </Array>
          </mxGeometry>
        </mxCell>
        <mxCell id="TySJbNBTFxAgqBWfPCnc-124" style="edgeStyle=orthogonalEdgeStyle;rounded=0;orthogonalLoop=1;jettySize=auto;html=1;exitX=0.5;exitY=1;exitDx=0;exitDy=0;entryX=0.5;entryY=0;entryDx=0;entryDy=0;" edge="1" parent="1" source="TySJbNBTFxAgqBWfPCnc-122" target="TySJbNBTFxAgqBWfPCnc-84">
          <mxGeometry relative="1" as="geometry" />
        </mxCell>
        <mxCell id="TySJbNBTFxAgqBWfPCnc-122" value="&lt;b&gt;Power Supply&lt;/b&gt;&lt;div&gt;12V 1A&lt;/div&gt;" style="rounded=0;whiteSpace=wrap;html=1;" vertex="1" parent="1">
          <mxGeometry x="690" y="50" width="90" height="40" as="geometry" />
        </mxCell>
      </root>
    </mxGraphModel>
  </diagram>
</mxfile>
